<svg width="64" height="16" xmlns="http://www.w3.org/2000/svg" version="1.1" enable-background="new 0 0 64 16" xml:space="preserve">
 <g>
  <title>Layer 1</title>
  <!-- 替换svg_1：使用Font Awesome白色向下箭头，适配尺寸与垂直居中 -->
  <g id="svg_1" transform="translate(-3, -3) scale(0.034)">
   <path fill="#FFFFFF" d="M297.4 470.6C309.9 483.1 330.2 483.1 342.7 470.6L534.7 278.6C547.2 266.1 547.2 245.8 534.7 233.3C522.2 220.8 501.9 220.8 489.4 233.3L320 402.7L150.6 233.4C138.1 220.9 117.8 220.9 105.3 233.4C92.8 245.9 92.8 266.2 105.3 278.7L297.3 470.7z"/>
  </g>
  <!-- svg_3（橙色文件夹）：保持原缩放与位置，确保与新箭头垂直对齐 -->
  <g id="svg_3" transform="translate(14, -1) scale(0.0312)">
   <path fill="#ffa500" d="M128 512L512 512C547.3 512 576 483.3 576 448L576 208C576 172.7 547.3 144 512 144L362.7 144C355.8 144 349 141.8 343.5 137.6L305.1 108.8C294 100.5 280.5 96 266.7 96L128 96C92.7 96 64 124.7 64 160L64 448C64 483.3 92.7 512 128 512z"/>
  </g>
  <!-- svg_5（橙色文件夹）：保持原缩放与位置，与svg_3尺寸一致、布局协调 -->
  <g id="svg_5" transform="translate(30, -1) scale(0.0312)">
   <path fill="#ffa500" d="M88 289.6L64.4 360.2L64.4 160C64.4 124.7 93.1 96 128.4 96L267.1 96C280.9 96 294.4 100.5 305.5 108.8L343.9 137.6C349.4 141.8 356.2 144 363.1 144L480.4 144C515.7 144 544.4 172.7 544.4 208L544.4 224L179 224C137.7 224 101 250.4 87.9 289.6zM509.8 512L131 512C98.2 512 75.1 479.9 85.5 448.8L133.5 304.8C140 285.2 158.4 272 179 272L557.8 272C590.6 272 613.7 304.1 603.3 335.2L555.3 479.2C548.8 498.8 530.4 512 509.8 512z"/>
  </g>
 </g>
</svg>